<svg xmlns="http://www.w3.org/2000/svg" viewBox="0 0 24 24" fill="#3370FF"><path d="M3.336 6.448c-.4-.405-.992-.17-.992.394v8.109a5.05 5.05 0 0 0 2.09 4.09l6.093 4.424c.398.29.942-.01.942-.518V14.1a2.526 2.526 0 0 0-1.048-2.046L3.336 6.448z"/><path d="M6.24 3.87c-.47-.38-1.133-.07-1.133.53v5.6c0 .567.27 1.1.727 1.432l7.087 5.145c.457.332.727.865.727 1.432v5.6c0 .6.663.91 1.133.53l5.98-4.87a5.05 5.05 0 0 0 1.84-3.898V6.448c0-.564-.592-.799-.992-.394l-7.085 5.606a2.526 2.526 0 0 1-1.048.44L6.24 3.87z" opacity=".6"/></svg>
