<svg xmlns="http://www.w3.org/2000/svg" viewBox="0 0 24 24" fill="#6264A7"><path d="M20.625 8.5a2.125 2.125 0 1 0 0-4.25 2.125 2.125 0 0 0 0 4.25zm-4.25-3.187a3.188 3.188 0 1 0 0-6.375 3.188 3.188 0 0 0 0 6.375zM24 12.375v4.25A2.375 2.375 0 0 1 21.625 19h-.392A5.587 5.587 0 0 0 22 16.625v-5.25c0-.51-.068-1.003-.196-1.472A2.375 2.375 0 0 1 24 12.375zM13.5 4.875a4.375 4.375 0 1 0-6.125 4.018A5.625 5.625 0 0 0 2 14.375V19h15v-4.625a5.625 5.625 0 0 0-5.375-5.482A4.375 4.375 0 0 0 13.5 4.875zM18 16.625V11.5a3.5 3.5 0 0 1 3.5 3.5v4.5h-1.125A2.375 2.375 0 0 1 18 17.125v-.5z"/></svg>
